<svg xmlns="http://www.w3.org/2000/svg" width="1600" height="900" viewBox="0 0 1600 900" fill="none">
  <defs>
    <linearGradient id="bg" x1="160" y1="60" x2="1500" y2="860" gradientUnits="userSpaceOnUse">
      <stop stop-color="#0E2A52"/>
      <stop offset="0.5" stop-color="#0C4E8A"/>
      <stop offset="1" stop-color="#071220"/>
    </linearGradient>
  </defs>
  <rect width="1600" height="900" fill="url(#bg)"/>
  <path d="M0 720C220 680 460 670 740 700C1040 732 1320 748 1600 702V900H0V720Z" fill="#040B16"/>
  <g opacity="0.78">
    <rect x="220" y="370" width="140" height="330" rx="12" fill="#0A315E"/>
    <rect x="392" y="300" width="180" height="400" rx="12" fill="#0D3D72"/>
    <rect x="612" y="420" width="136" height="280" rx="12" fill="#08325E"/>
    <rect x="780" y="330" width="210" height="370" rx="12" fill="#0B3A6F"/>
    <rect x="1030" y="400" width="170" height="300" rx="12" fill="#0A2D56"/>
  </g>
  <g opacity="0.72" fill="#6CE8FF">
    <rect x="248" y="410" width="84" height="8"/><rect x="248" y="440" width="84" height="8"/>
    <rect x="430" y="345" width="104" height="9"/><rect x="430" y="378" width="104" height="9"/>
    <rect x="820" y="370" width="130" height="9"/><rect x="820" y="404" width="130" height="9"/>
    <rect x="1062" y="432" width="108" height="8"/><rect x="1062" y="462" width="108" height="8"/>
  </g>
  <circle cx="1240" cy="190" r="106" stroke="#71E8FF" stroke-width="12" opacity="0.6"/>
  <circle cx="1240" cy="190" r="64" stroke="#71E8FF" stroke-width="10" opacity="0.8"/>
</svg>
