<svg xmlns="http://www.w3.org/2000/svg" width="1920" height="1080" viewBox="0 0 1920 1080" fill="none">
  <defs>
    <linearGradient id="bg" x1="130" y1="70" x2="1710" y2="980" gradientUnits="userSpaceOnUse">
      <stop stop-color="#1D1A55"/>
      <stop offset="0.5" stop-color="#3F2E8A"/>
      <stop offset="1" stop-color="#0A0B18"/>
    </linearGradient>
    <linearGradient id="neon" x1="0" y1="0" x2="1" y2="1">
      <stop stop-color="#7CFFDB"/>
      <stop offset="1" stop-color="#47D8FF"/>
    </linearGradient>
    <filter id="glow" x="-50%" y="-50%" width="200%" height="200%">
      <feGaussianBlur stdDeviation="6" result="b"/>
      <feMerge>
        <feMergeNode in="b"/>
        <feMergeNode in="SourceGraphic"/>
      </feMerge>
    </filter>
  </defs>

  <rect width="1920" height="1080" fill="url(#bg)"/>
  <circle cx="1620" cy="180" r="132" fill="#FFE8A8" fill-opacity="0.22"/>
  <path d="M0 775C210 730 474 715 698 760C899 800 1078 852 1376 826C1594 808 1768 760 1920 704V1080H0V775Z" fill="#0A0C17"/>

  <g opacity="0.33">
    <rect x="120" y="360" width="240" height="360" rx="14" fill="#1D275B"/>
    <rect x="406" y="300" width="192" height="420" rx="14" fill="#18214E"/>
    <rect x="642" y="410" width="162" height="310" rx="14" fill="#202C69"/>
    <rect x="830" y="348" width="214" height="372" rx="14" fill="#1A2454"/>
  </g>

  <g opacity="0.28">
    <path d="M1360 250C1394 188 1484 185 1518 250V352H1360V250Z" fill="#D8EDFF"/>
    <circle cx="1412" cy="266" r="8" fill="#2A3770"/>
    <circle cx="1466" cy="266" r="8" fill="#2A3770"/>
    <path d="M1410 296C1428 310 1446 310 1464 296" stroke="#2A3770" stroke-width="8" stroke-linecap="round"/>
  </g>

  <g opacity="0.24">
    <path d="M1590 340C1628 273 1726 273 1760 340V458H1590V340Z" fill="#D8EDFF"/>
    <circle cx="1646" cy="362" r="9" fill="#2D386E"/>
    <circle cx="1705" cy="362" r="9" fill="#2D386E"/>
    <path d="M1644 394C1664 410 1685 410 1706 394" stroke="#2D386E" stroke-width="9" stroke-linecap="round"/>
  </g>

  <g transform="translate(840,270)">
    <ellipse cx="130" cy="470" rx="150" ry="42" fill="#79FFE7" fill-opacity="0.3" filter="url(#glow)"/>
    <path d="M70 150C56 108 63 55 109 30C155 5 251 18 287 63C322 108 316 154 298 184L242 242H122L70 150Z" fill="#5FD8FF"/>
    <path d="M114 162C118 122 149 96 192 94C238 92 271 120 274 162C278 217 244 256 193 256C141 256 110 217 114 162Z" fill="#FFDDCC"/>
    <ellipse cx="165" cy="164" rx="8" ry="10" fill="#1F2555"/>
    <ellipse cx="220" cy="164" rx="8" ry="10" fill="#1F2555"/>
    <path d="M166 207C182 220 199 220 217 207" stroke="#F4699F" stroke-width="6" stroke-linecap="round"/>
    <path d="M58 278C90 244 296 244 328 278V498H58V278Z" fill="url(#neon)"/>
    <rect x="148" y="312" width="92" height="138" rx="12" fill="#1C2D65"/>
    <rect x="162" y="330" width="64" height="14" rx="7" fill="#76FFE7"/>
    <rect x="162" y="356" width="64" height="14" rx="7" fill="#76FFE7"/>
    <rect x="162" y="382" width="64" height="14" rx="7" fill="#76FFE7"/>
  </g>

  <g filter="url(#glow)">
    <text x="170" y="166" fill="#8EFFE5" font-family="'Zen Kaku Gothic New', sans-serif" font-size="54" font-weight="700">EP 01 · 鬼域社保局</text>
    <text x="118" y="978" fill="#FFFFFF" font-family="'Zen Kaku Gothic New', sans-serif" font-size="122" font-weight="900">我给诡异交五险</text>
  </g>
</svg>
